<svg width="46" height="46" fill="none" stroke="currentColor" stroke-linecap="round" stroke-linejoin="round" stroke-width="2" viewBox="0 0 24 24" xmlns="http://www.w3.org/2000/svg">
       <path d="M12 16.125a4.125 4.125 0 1 0 0-8.25 4.125 4.125 0 0 0 0 8.25Z"></path>
       <path d="M17.222 6.102c.238.218.463.443.675.675l2.56.365c.417.724.738 1.5.956 2.306l-1.556 2.072s.028.638 0 .957l1.556 2.071a9.581 9.581 0 0 1-.956 2.307l-2.56.365s-.44.46-.675.675l-.365 2.56c-.725.417-1.5.738-2.307.956l-2.072-1.556a5.434 5.434 0 0 1-.956 0L9.45 21.41a9.58 9.58 0 0 1-2.306-.956l-.365-2.56a17.118 17.118 0 0 1-.675-.675l-2.56-.365a9.674 9.674 0 0 1-.956-2.307l1.556-2.071s-.019-.638 0-.957L2.588 9.448a9.581 9.581 0 0 1 .956-2.306l2.56-.365c.218-.232.443-.457.675-.675l.365-2.56a9.675 9.675 0 0 1 2.306-.956l2.072 1.556c.318-.028.638-.028.957 0l2.071-1.556a9.58 9.58 0 0 1 2.307.956l.365 2.56Z"></path>
</svg>